<?xml version="1.0" standalone="no"?> <!DOCTYPE svg PUBLIC "-//W3C//DTD SVG 1.0//EN" "http://www.w3.org/TR/2001/REC-SVG-20010904/DTD/svg10.dtd" > <svg xmlns="http://www.w3.org/2000/svg" width="100%" height="100%">
<defs >
<font id="edwardianscriptitc" horiz-adv-x="522" ><font-face
    font-family="Edwardian Script ITC"
    units-per-em="2048"
    panose-1="3 3 3 2 4 7 7 13 8 4"
    ascent="1742"
    descent="-672"
    alphabetic="0" />
<missing-glyph horiz-adv-x="1024" d="M128 0V1380H896V0H128ZM256 128H768V1252H256V128Z" />
<glyph unicode=" " glyph-name="space" horiz-adv-x="362" />
<glyph unicode="!" glyph-name="four" horiz-adv-x="588" d="M903 1104Q903 1058 674 741Q423 396 342 233Q336 221 328 221Q319 221 319 231Q319 234 332 252Q434 402 664 928Q722 1062 761 1112T846 1163Q903 1163 903 1104ZM330 117Q330 72 289 31T205 -10Q162
-10 162 35Q162 76 205 117T291 158Q330 158 330 117Z" />
<glyph unicode="&quot;" glyph-name="five" horiz-adv-x="979" d="M1225 1270Q1225 1240 1210 1207Q1198 1178 1112 1012Q1054 898 1032 834H1016Q1030 883 1090 1149Q1124 1317 1186 1317Q1225 1317 1225 1270ZM1057 1268Q1057 1228 1012 1143Q897 925 864 834H846Q877
941 920 1149Q954 1317 1018 1317Q1057 1317 1057 1268Z" />
<glyph unicode="#" glyph-name="six" horiz-adv-x="979" d="M1309 655Q1303 637 1251 637H1016L909 410H1106Q1151 410 1145 389Q1139 371 1087 371H893Q805 180 750 66Q728 21 711 27Q694 33 711 70Q744 143 850 371H582Q530 257 438 66Q417 20 399 27Q383 33
399 70Q433 143 539 371H295Q261 371 268 393Q274 410 311 410H557L664 637H459Q425 637 432 659Q438 676 475 676H682Q734 788 821 975Q840 1015 858 1010Q878 1004 860 967Q818 878 723 676H991Q1045 788 1133 975Q1151 1015 1169 1010Q1189 1004 1171 967Q1129
878 1034 676H1270Q1315 676 1309 655ZM975 637H705Q669 561 600 410H868L975 637Z" />
<glyph unicode="$" glyph-name="seven" horiz-adv-x="979" d="M1233 768Q1233 693 1164 642T991 590Q858 590 858 686Q858 725 898 773T971 821Q979 821 979 815Q978 811 975 811Q874 766 874 688Q874 608 965 608Q1031 608 1098 672T1165 799Q1165 907 1014 907Q900
907 807 834T713 674Q713 622 787 556Q844 511 901 467Q1016 376 1016 274Q1016 144 887 50T580 -45Q557 -45 535 -43L334 -418Q325 -434 315 -434Q305 -434 305 -422Q305 -414 313 -399L514 -39Q279 0 279 168Q279 257 380 335T596 414Q609 414 610 410Q610 404
588 399Q494 381 431 312T367 160Q367 69 423 18T580 -33Q715 -33 814 39T913 211Q913 265 885 298T732 425T606 618Q606 735 728 828T1004 922Q1026 922 1047 920L1200 1210Q1212 1233 1221 1233Q1231 1233 1231 1221Q1231 1217 1223 1196L1069 915Q1233 882 1233
768Z" />
<glyph unicode="%" glyph-name="eight" horiz-adv-x="1096" d="M1227 1030Q1227 1023 1217 1012Q1011 792 627 98Q588 109 551 109Q547 109 494 104Q802 532 1128 928L1157 963Q1090 894 948 815Q859 766 801 682Q691 524 586 524Q540 524 511 555T481 635Q481
726 590 830T795 934Q870 934 870 852Q870 800 827 731Q893 815 1008 881Q1133 952 1206 1026Q1217 1036 1221 1036Q1226 1034 1227 1030ZM844 866Q844 920 801 920Q733 920 638 797T543 588Q543 539 586 539Q657 539 750 657T844 866ZM1257 481Q1257 382 1158
268T973 154Q927 154 898 184T868 262Q868 354 976 458T1182 563Q1257 563 1257 481ZM1231 496Q1231 549 1188 549Q1121 549 1026 427T930 219Q930 168 973 168Q1044 168 1137 286T1231 496Z" />
<glyph unicode="&amp;" glyph-name="nine" horiz-adv-x="1821" d="M2042 457Q2042 281 1929 158T1655 35Q1591 35 1503 68Q1346 -35 1157 -35Q1000 -35 875 36T692 229Q558 274 482 374T406 606Q406 840 615 1000T1128 1161Q1298 1161 1470 1108Q1546 1196 1625
1255T1745 1315Q1780 1315 1780 1282Q1780 1223 1579 1067Q1791 972 1916 807T2042 457ZM1761 1282Q1761 1298 1745 1298Q1713 1298 1637 1239T1491 1102L1499 1098L1520 1092L1546 1079L1559 1075Q1637 1129 1699 1192T1761 1282ZM1542 1063Q1509 1075 1479 1085Q1439
1037 1403 977Q1456 1003 1542 1063ZM1993 498Q1993 674 1881 819T1563 1055Q1493 1004 1389 946Q1344 858 1315 748Q1371 758 1413 758Q1472 758 1524 741Q1562 818 1573 887Q1577 915 1591 915Q1604 915 1604 899Q1604 854 1548 733Q1729 655 1729 451Q1729 233
1522 80Q1575 59 1630 59Q1779 59 1886 188T1993 498ZM1518 727Q1463 741 1413 741Q1365 741 1311 727Q1282 621 1282 477Q1282 442 1284 416Q1436 555 1518 727ZM1694 477Q1694 645 1540 719Q1444 530 1286 393Q1299 265 1380 174Q1515 257 1518 369Q1518 397
1538 397Q1561 397 1561 373Q1561 330 1510 265T1395 162Q1409 147 1454 113L1464 106Q1569 185 1631 285T1694 477ZM1458 1094Q1316 1139 1176 1139Q895 1139 680 964T465 561Q465 345 680 256Q657 318 657 379Q657 619 961 791Q1041 836 1370 961Q1403 1017 1458
1094ZM1352 926Q1316 908 1245 872Q748 621 748 301Q748 272 756 233Q817 227 838 227Q904 227 983 248Q952 306 952 362Q952 481 1042 585T1274 735Q1297 812 1352 926ZM1268 713Q1149 660 1075 561T1001 354Q1001 309 1020 260Q1143 300 1243 381Q1231 442 1231
489Q1231 588 1268 713ZM1360 164Q1275 258 1247 362Q1144 284 1030 242Q1089 135 1239 135Q1297 135 1360 164ZM1448 94Q1396 126 1374 152Q1296 117 1225 117Q1082 117 995 231Q909 207 840 207Q809 207 762 213Q802 112 905 50T1137 -12Q1290 -12 1448 94Z"
/>
<glyph unicode="&apos;" glyph-name="colon" horiz-adv-x="657" d="M981 1268Q981 1228 936 1143Q821 925 788 834H770Q801 941 844 1149Q878 1317 942 1317Q981 1317 981 1268Z" />
<glyph unicode="(" glyph-name="semicolon" horiz-adv-x="899" d="M1749 1442Q1749 1433 1712 1427Q1304 1361 975 974T645 174Q645 -21 768 -141Q774 -147 774 -152Q773 -158 768 -158Q756 -158 705 -98Q563 64 563 313Q563 591 748 870T1214 1294Q1318 1348
1489 1399T1735 1450Q1749 1450 1749 1442Z" />
<glyph unicode=")" glyph-name="less" horiz-adv-x="899" d="M946 1018Q946 803 896 648T729 340Q594 166 429 58T20 -123Q-152 -174 -188 -174Q-199 -174 -199 -166Q-199 -158 -174 -154Q219 -81 541 311T864 1110Q864 1314 743 1425Q735 1431 735 1438Q735 1444
743 1444Q751 1444 782 1413Q946 1252 946 1018Z" />
<glyph unicode="*" glyph-name="equal" horiz-adv-x="569" d="M1006 1051Q997 1005 936 997Q923 996 858 1012Q828 1018 774 1014Q788 986 819 952Q847 927 883 881Q898 844 879 815Q860 787 836 815Q823 829 799 920Q785 969 766 1008Q743 965 727 924Q716 880
690 813Q664 772 623 772Q591 772 604 813Q609 828 694 928Q739 981 758 1014Q710 1009 668 993Q630 979 569 963Q548 961 537 969T528 991Q539 1036 590 1040Q613 1042 674 1028Q715 1019 756 1022Q738 1048 715 1075Q685 1103 651 1151Q634 1186 655 1217Q673
1241 698 1223Q716 1206 737 1114Q746 1076 766 1026Q778 1053 803 1118Q829 1201 846 1229Q871 1270 907 1270Q941 1270 932 1229Q925 1198 846 1114Q789 1054 776 1024Q795 1026 901 1059Q932 1069 965 1075Q984 1079 996 1071T1006 1051Z" />
<glyph unicode="+" glyph-name="greater" horiz-adv-x="1071" d="M1300 528Q1297 510 1239 510H848L680 150Q660 107 647 107Q644 107 641 109Q623 116 643 158L809 510H395Q361 510 365 528Q368 547 426 547H825L991 903Q1015 954 1030 948Q1050 941 1030 899Q975
781 864 547H1266Q1304 547 1300 528Z" />
<glyph unicode="," glyph-name="question" horiz-adv-x="457" d="M309 121Q309 53 236 -27Q207 -57 161 -87T96 -117Q90 -117 90 -111Q90 -105 98 -102Q140 -87 173 -60T207 -12Q207 -6 197 -6Q152 -6 152 37Q152 76 192 120T268 164Q309 164 309 121Z" />
<glyph unicode="-" glyph-name="at" horiz-adv-x="733" d="M733 272Q733 260 651 235T526 209Q486 209 442 219Q390 231 365 231Q323 231 285 211Q283 209 279 209Q275 210 274 213Q274 225 351 252T465 279Q486 279 551 264Q606 252 631 252Q678 252 719 272Q725
276 729 276Q733 276 733 272Z" />
<glyph unicode="." glyph-name="A" horiz-adv-x="457" d="M348 117Q348 72 307 31T223 -10Q180 -10 180 35Q180 76 223 117T309 158Q348 158 348 117Z" />
<glyph unicode="/" glyph-name="B" horiz-adv-x="1083" d="M1454 1487L379 -207H348L1423 1487H1454Z" />
<glyph unicode="0" glyph-name="C" horiz-adv-x="979" d="M1292 791Q1292 562 1063 303Q784 -12 547 -12Q427 -12 351 73T274 293Q274 562 604 840Q889 1079 1059 1079Q1165 1079 1228 1000T1292 791ZM1219 901Q1219 1065 1061 1065Q932 1065 763 913Q602 769
487 566Q367 353 367 190Q367 2 545 2Q765 2 987 309Q1092 454 1155 616T1219 901Z" />
<glyph unicode="1" glyph-name="D" horiz-adv-x="979" d="M1249 1038Q1249 1029 1022 678Q840 397 771 264T666 -6Q630 2 604 2Q575 2 496 -10Q564 189 911 608Q1124 865 1194 975Q934 667 672 467Q503 338 469 338Q461 338 461 344Q461 351 473 356Q727 471 1210
1008L1223 1022Q1242 1042 1245 1042Q1249 1042 1249 1038Z" />
<glyph unicode="2" glyph-name="E" horiz-adv-x="979" d="M1294 850Q1294 712 1180 604Q1098 527 1011 481T668 332Q348 204 227 57Q316 127 422 127Q505 127 643 84Q761 47 823 47Q908 47 980 116T1079 291Q1082 303 1090 303Q1093 302 1094 299Q1094 242 1026
147Q901 -27 715 -27Q646 -27 510 14Q347 63 303 63Q199 63 188 -20Q186 -43 174 -43Q166 -43 166 -35Q166 12 246 94Q315 165 386 210Q462 256 662 350Q913 468 1055 621T1198 926Q1198 989 1152 1026T1026 1063Q850 1063 645 883T440 547Q440 434 575 434Q683
434 815 539T997 768Q1000 778 1006 778Q1012 778 1012 772Q1012 729 926 627Q851 538 753 481T578 424Q501 424 455 470T408 592Q408 779 655 942Q857 1075 1030 1075Q1147 1075 1220 1013T1294 850Z" />
<glyph unicode="3" glyph-name="F" horiz-adv-x="979" d="M1235 897Q1235 660 823 588Q1065 533 1065 342Q1065 198 900 89T518 -20Q381 -20 293 35T205 176Q205 265 292 328T504 391Q598 391 598 379Q598 373 592 373H584Q547 379 522 379Q413 379 338 317T262
164Q262 90 321 43T475 -4Q658 -4 811 126T965 412Q965 541 807 582Q721 569 666 569Q614 569 614 582Q614 602 688 602Q745 602 807 592Q959 643 1049 739T1139 948Q1139 1075 977 1075Q837 1075 697 979T557 784Q557 694 672 694Q741 694 828 749T965 881Q970
891 977 891Q981 890 981 887Q981 876 943 834T872 766Q766 682 668 682Q609 682 572 716T535 805Q535 906 677 996T979 1087Q1096 1087 1165 1036T1235 897Z" />
<glyph unicode="4" glyph-name="G" horiz-adv-x="979" d="M1602 1167Q1602 1159 1593 1159Q1590 1159 1583 1161Q1537 1178 1493 1178Q1233 1178 825 756Q625 549 531 470T311 324Q429 354 621 354Q692 354 739 350Q794 434 977 686Q1134 903 1174 985Q1179 997
1186 997Q1190 996 1190 993Q1190 991 1188 987L1178 967Q1166 943 1034 707Q907 477 844 344Q905 340 958 340Q1063 340 1128 386T1194 504Q1194 530 1180 561Q1178 565 1178 571Q1178 578 1184 578Q1206 578 1206 504Q1206 303 823 303Q736 112 717 -4Q680 8
643 8Q597 8 543 -4Q596 140 709 303Q687 304 602 311Q484 324 428 324Q373 324 305 315Q186 240 115 240Q98 240 98 250Q98 284 291 324Q429 405 521 485Q608 559 815 772Q1230 1198 1493 1198Q1530 1198 1566 1188T1602 1167Z" />
<glyph unicode="5" glyph-name="H" horiz-adv-x="979" d="M1307 1100Q1307 1037 1250 989T1118 940Q1062 940 999 963Q902 997 858 997Q800 997 774 928Q717 775 627 651Q710 690 795 690Q930 690 1020 614T1110 422Q1110 253 922 118T496 -18Q371 -18 292 38T213
184Q213 287 315 356T567 426Q653 426 653 414Q652 410 647 410Q635 410 612 412T575 414Q442 414 356 345T270 168Q270 88 326 42T479 -4Q662 -4 835 149T1008 463Q1008 558 944 615T772 672Q701 672 614 639Q509 504 469 504Q457 504 457 514Q457 554 604 639Q780
875 780 1044Q780 1063 778 1071Q776 1075 776 1081Q776 1094 788 1094Q801 1094 801 1061Q801 1031 788 979Q845 1077 938 1077Q974 1077 1130 1024Q1185 1006 1214 1006Q1245 1006 1268 1028T1292 1081Q1292 1089 1288 1100T1284 1114Q1284 1126 1294 1126Q1307
1126 1307 1100Z" />
<glyph unicode="6" glyph-name="I" horiz-adv-x="979" d="M1325 1169Q1325 1159 1305 1159H1286Q1108 1159 846 905T455 354Q555 516 688 615T940 715Q1040 715 1102 654T1165 494Q1165 317 971 149T571 -20Q459 -20 393 52T326 246Q326 427 475 625T893 1001Q1001
1073 1125 1126T1307 1180Q1325 1180 1325 1169ZM1079 567Q1079 702 930 702Q771 702 592 516T412 164Q412 86 451 39T555 -8Q710 -8 894 194T1079 567Z" />
<glyph unicode="7" glyph-name="J" horiz-adv-x="979" d="M1311 1124Q1311 1078 1262 997Q1222 932 1183 889Q1138 837 977 680Q575 287 559 -4Q513 6 467 6Q425 6 389 -4Q424 190 568 365T1038 786Q1213 918 1268 1034Q1196 928 1051 928Q976 928 854 973T696
1018Q666 1018 637 1001L631 989Q553 834 518 834Q506 834 506 846Q506 896 623 1001Q645 1047 645 1079Q645 1092 639 1112V1116Q639 1128 651 1128Q664 1128 664 1108Q664 1071 641 1016Q721 1081 803 1081Q851 1081 1004 1030Q1089 1001 1145 1001Q1284 1001
1284 1100Q1284 1108 1282 1118V1124Q1282 1141 1296 1141Q1311 1141 1311 1124Z" />
<glyph unicode="8" glyph-name="K" horiz-adv-x="979" d="M1327 930Q1327 754 903 629Q997 540 1029 486T1061 365Q1061 216 909 98T565 -20Q427 -20 342 42T256 207Q256 328 374 417T780 604Q680 702 680 788Q680 905 809 1001T1096 1098Q1194 1098 1260 1050T1327
930ZM1260 961Q1260 1014 1213 1049T1096 1085Q970 1085 873 1012T776 842Q776 787 817 729Q833 706 897 637Q1063 694 1161 782T1260 961ZM958 301Q958 385 904 463Q888 485 786 596Q334 431 334 172Q334 -8 563 -8Q724 -8 841 83T958 301Z" />
<glyph unicode="9" glyph-name="L" horiz-adv-x="979" d="M1253 819Q1253 649 1100 452T684 88Q568 14 438 -38T240 -90Q223 -90 223 -80Q223 -66 248 -66H262Q443 -66 712 175T1112 696Q1014 550 871 454T608 358Q512 358 455 416T397 573Q397 751 602 911Q701
989 818 1038T1018 1087Q1122 1087 1187 1013T1253 819ZM1167 905Q1167 1075 1020 1075Q866 1075 674 870T481 502Q481 373 618 373Q708 373 833 447T1049 629Q1167 769 1167 905Z" />
<glyph unicode=":" glyph-name="M" horiz-adv-x="457" d="M528 410Q528 365 488 324T403 283Q360 283 360 328Q360 369 402 410T489 451Q528 451 528 410ZM348 117Q348 72 307 31T223 -10Q180 -10 180 35Q180 76 223 117T309 158Q348 158 348 117Z" />
<glyph unicode=";" glyph-name="N" horiz-adv-x="457" d="M508 418Q508 373 467 332T383 291Q340 291 340 334Q340 377 382 418T469 459Q508 459 508 418ZM311 121Q311 53 238 -27Q210 -57 164 -87T98 -117Q92 -117 92 -111Q92 -105 100 -102Q142 -87 175 -60T209
-12Q209 -6 199 -6Q154 -6 154 37Q154 76 194 120T270 164Q311 164 311 121Z" />
<glyph unicode="&lt;" glyph-name="O" horiz-adv-x="1071" d="M1409 909L1393 866L414 502L1147 129L1116 104L367 485L383 528L1409 909Z" />
<glyph unicode="=" glyph-name="P" horiz-adv-x="1071" d="M1337 610Q1333 592 1276 592H432Q398 592 401 610Q405 629 463 629H1303Q1341 629 1337 610ZM1217 426Q1213 408 1155 408H311Q277 408 281 426Q284 444 342 444H1182Q1220 444 1217 426Z" />
<glyph unicode="&gt;" glyph-name="Q" horiz-adv-x="1071" d="M1274 532L1257 489L231 109L248 152L1227 516L494 889L524 913L1274 532Z" />
<glyph unicode="?" glyph-name="R" horiz-adv-x="893" d="M1253 909Q1253 752 1063 633Q994 589 727 487Q453 382 453 270Q453 219 506 219Q596 219 676 336Q679 342 684 342Q688 341 688 336Q688 319 631 266Q563 205 506 205Q438 205 438 268Q438 322 502 379Q532
406 558 422Q595 446 729 520Q1151 755 1151 981Q1151 1146 954 1167Q963 1129 963 1092Q963 915 822 755T524 594Q458 594 415 636T371 743Q371 906 547 1042T936 1178Q884 1300 766 1300Q725 1300 688 1286Q680 1282 678 1282Q673 1284 672 1288Q672 1296 705
1305T766 1315Q894 1315 950 1178Q1084 1168 1168 1093T1253 909ZM950 1092Q950 1129 940 1167Q739 1167 563 1001Q401 849 401 717Q401 608 522 608Q665 608 807 770T950 1092ZM477 117Q477 72 436 31T352 -10Q309 -10 309 35Q309 76 352 117T438 158Q477 158
477 117Z" />
<glyph unicode="@" glyph-name="S" horiz-adv-x="1393" d="M1663 526Q1627 410 1532 322Q1525 222 1456 141Q1287 -55 928 -55Q696 -55 533 52Q336 183 336 426Q336 699 583 882Q821 1059 1153 1059Q1383 1059 1535 920Q1677 791 1677 621Q1677 572 1663 526ZM1623
638Q1623 801 1499 920Q1364 1049 1149 1049Q833 1049 614 872Q391 692 391 424Q391 203 570 71Q725 -43 930 -43Q1278 -43 1444 147Q1504 217 1518 307Q1371 181 1211 181Q1196 181 1175 183Q1028 202 1028 326Q1028 380 1061 442Q960 302 907 254T805 205Q751
205 716 250T680 365Q680 556 950 705Q1070 770 1143 770Q1204 770 1204 711Q1204 693 1196 666L1247 762Q1278 756 1300 756Q1327 756 1370 762L1194 469Q1102 316 1102 266Q1102 201 1192 193Q1272 185 1362 233T1520 367Q1516 458 1466 518Q1450 535 1452 537Q1457
542 1473 526Q1522 477 1532 383Q1623 509 1623 638ZM1190 707Q1190 756 1145 756Q1053 756 904 576T754 285Q754 219 811 219Q880 219 1051 449Q1190 636 1190 707Z" />
<glyph unicode="A" glyph-name="T" horiz-adv-x="1860" d="M1786 1016Q1786 1005 1749 963Q1647 846 1556 846Q1498 846 1462 886T1425 993Q1425 1049 1491 1174Q1522 1232 1522 1270Q1522 1320 1467 1355T1331 1391Q1102 1391 907 1215T711 834Q711 730 776 664T946
598Q1059 598 1173 680T1335 879Q1338 889 1343 889Q1352 889 1352 879Q1352 858 1317 805T1245 715Q1110 582 942 582Q828 582 759 652T690 838Q690 1049 893 1229T1335 1409Q1440 1409 1499 1357T1559 1214Q1559 1146 1511 1053Q1468 968 1468 938Q1468 864 1556
864Q1656 864 1763 1012Q1772 1024 1778 1024Q1786 1024 1786 1016ZM2857 1198Q2857 1180 2836 1180Q2827 1180 2769 1192Q2662 1214 2591 1214Q2430 1165 2307 1024T2025 567Q1783 82 1405 -6Q1484 -18 1542 -18Q1726 -18 1851 100Q1972 214 2052 342Q2061 356
2066 356Q2072 356 2073 352Q2073 337 1958 197Q1851 66 1763 17T1548 -33Q1475 -33 1370 -12Q1306 -33 1223 -33Q1165 -33 1165 -12Q1165 12 1243 12Q1298 12 1370 2Q1525 39 1604 124T1911 584H1526Q1281 326 1147 217Q834 -37 557 -37Q399 -37 289 37T178 217Q178
272 211 311T293 350Q358 350 358 287Q358 254 336 231T283 207Q236 207 236 252L238 272Q240 276 240 283Q240 293 231 293Q221 293 211 268T201 217Q201 119 304 52T557 -16Q772 -16 1030 195Q1089 242 1161 319Q1304 469 1389 553L1419 584H1225L1237 602Q1333
602 1434 600Q1727 926 2002 1076T2585 1229Q2656 1243 2718 1243Q2857 1243 2857 1198ZM2540 1210Q2279 1197 2056 1060T1542 600H1921Q2049 823 2230 1000Q2408 1176 2540 1210Z" />
<glyph unicode="B" glyph-name="U" horiz-adv-x="1903" d="M2488 1040Q2488 988 2474 926T2447 864Q2437 864 2437 874Q2437 877 2439 883Q2466 953 2466 1034Q2466 1160 2391 1236T2193 1313Q2028 1313 1853 1204Q1993 1100 1993 961Q1993 738 1690 696Q1939
609 1939 377Q1939 205 1793 76T1450 -53Q1356 -53 1301 -5T1245 127Q1245 255 1362 380T1599 506Q1665 506 1707 465T1749 358Q1749 319 1725 261T1686 203Q1675 203 1675 211Q1675 215 1679 223Q1731 299 1731 360Q1731 417 1694 452T1597 487Q1484 487 1376
368T1268 125Q1268 59 1313 15T1425 -29Q1578 -29 1705 119T1833 446Q1833 612 1673 690L1615 683Q1591 680 1567 680Q1491 680 1491 705Q1491 723 1554 723Q1599 723 1673 705Q1777 737 1837 817T1898 1001Q1898 1101 1821 1182Q1602 1014 1409 612Q1290 365 1191
254Q1095 147 918 59Q709 -43 545 -43Q411 -43 322 18T233 172Q233 223 263 260T336 297Q397 297 397 229Q397 195 377 171T326 147Q274 147 276 201Q277 223 272 223Q256 223 256 170Q256 87 337 32T543 -23Q762 -23 940 139Q1017 209 1074 285T1335 674Q1434
823 1573 977T1806 1196Q1648 1329 1348 1329Q926 1329 614 1024Q358 774 358 553Q358 441 430 375T625 309Q826 309 1040 502T1255 877Q1255 1022 1106 1022Q957 1022 787 857T616 545Q616 509 640 483T696 457Q713 454 713 449Q713 440 694 440Q646 440 613 483T580
590Q580 745 751 892T1102 1040Q1274 1040 1274 881Q1274 687 1055 489T623 291Q484 291 401 374T317 598Q317 881 636 1114T1343 1348Q1634 1348 1837 1217Q2020 1331 2191 1331Q2325 1331 2406 1251T2488 1040Z" />
<glyph unicode="C" glyph-name="V" horiz-adv-x="1632" d="M1917 1110Q1917 1045 1827 975Q1909 854 1909 752Q1909 727 1894 727Q1882 727 1882 760Q1882 860 1812 963Q1667 855 1418 777T975 698Q948 698 928 700Q768 477 768 270Q768 129 855 47T1094 -35Q1379
-35 1602 238Q1737 403 1737 551Q1737 629 1690 675T1565 721Q1440 721 1297 590T1153 344Q1153 334 1159 334Q1164 335 1167 338Q1194 362 1217 362Q1268 362 1268 307Q1268 233 1196 233Q1130 233 1130 313Q1130 456 1275 596T1569 737Q1761 737 1761 526Q1761
308 1553 129T1090 -51Q913 -51 793 68T672 362Q672 532 791 711Q358 791 358 1053Q358 1209 519 1314T920 1419Q1255 1419 1597 1196Q1656 1208 1718 1208Q1917 1208 1917 1110ZM1901 1110Q1901 1192 1741 1192Q1691 1192 1622 1178Q1741 1096 1819 987Q1901 1057
1901 1110ZM1804 977Q1727 1088 1597 1174Q1410 1123 1232 999T940 715Q1149 715 1402 791T1804 977ZM1569 1192Q1265 1368 922 1368Q710 1368 552 1268T393 1034Q393 795 799 725Q1051 1076 1569 1192Z" />
<glyph unicode="D" glyph-name="W" horiz-adv-x="1735" d="M2568 1028Q2568 977 2556 921T2533 864Q2527 864 2527 870Q2527 877 2529 883Q2552 944 2552 1026Q2552 1152 2476 1228T2273 1305Q2031 1305 1804 1075Q1890 915 1890 737Q1890 409 1639 181T1024 -47Q912
-47 717 -16Q548 -47 393 -47Q129 -47 129 6Q129 32 193 52T344 72Q448 72 758 4Q967 59 1087 177Q1204 292 1446 678Q1592 912 1767 1077Q1621 1323 1294 1323Q956 1323 674 1057Q532 923 447 761T362 463Q362 355 430 290T612 225Q803 225 1008 431T1214 827Q1214
899 1174 943T1069 987Q995 987 995 963Q995 956 1006 956Q1012 956 1016 958H1030Q1079 958 1079 913Q1079 880 1054 856T995 831Q934 831 934 897Q934 942 974 974T1071 1006Q1144 1006 1189 958T1235 831Q1235 629 1025 418T612 207Q473 207 383 299T293 537Q293
848 600 1094T1294 1341Q1623 1341 1790 1098Q2034 1323 2286 1323Q2412 1323 2490 1242T2568 1028ZM1835 811Q1835 939 1782 1051Q1647 897 1540 664Q1399 355 1248 219Q1092 80 791 -4Q918 -31 1061 -31Q1444 -31 1681 340Q1835 580 1835 811ZM682 -10Q406 29
270 29Q150 29 150 6Q150 -29 412 -29Q562 -29 682 -10Z" />
<glyph unicode="E" glyph-name="X" horiz-adv-x="1722" d="M2124 1120Q2124 1053 2001 1053Q1904 1053 1540 1143Q1370 1046 1370 899Q1370 828 1419 801Q1490 807 1526 807Q1630 807 1630 782Q1630 766 1575 766Q1505 766 1423 786Q1312 770 1165 700Q791 521
791 236Q791 47 995 -4Q958 57 958 137Q958 334 1159 500T1599 666Q1709 666 1774 612T1839 467Q1839 272 1625 116T1143 -41Q1089 -41 1042 -35Q1138 -164 1327 -164Q1444 -164 1518 -129L1530 -127Q1536 -129 1536 -135Q1536 -149 1462 -164T1327 -180Q1118 -180
1008 -29Q855 5 769 86T682 276Q682 421 802 547T1122 739Q1243 779 1399 797Q1288 844 1288 946Q1288 1077 1450 1165Q1218 1221 1067 1221Q771 1221 563 1073T354 715Q354 621 409 554T541 487Q594 487 594 504Q594 513 575 510Q522 510 522 559Q522 587 545
607T602 627Q666 627 666 565Q666 524 630 496T541 467Q448 467 383 550T317 752Q317 929 471 1077Q654 1253 985 1253Q1169 1253 1475 1178Q1613 1245 1796 1245Q1932 1245 2028 1209T2124 1120ZM2103 1122Q2103 1161 2021 1191T1831 1221Q1684 1221 1563 1157Q1828
1071 2009 1071Q2103 1071 2103 1122ZM1821 475Q1821 547 1764 594T1620 641Q1405 641 1200 463T995 98Q995 44 1028 -12Q1086 -23 1135 -23Q1371 -23 1596 140T1821 475Z" />
<glyph unicode="F" glyph-name="Y" horiz-adv-x="1352" d="M2540 1167Q2540 1118 2442 1084T2206 1049Q2026 1049 1765 1104Q1638 1044 1532 922T1300 569Q1362 559 1403 553Q1459 682 1563 682Q1634 682 1634 627Q1634 583 1587 556T1462 528H1442Q1439 524 1417
475Q1392 417 1345 377T1257 336Q1243 336 1243 342Q1243 347 1253 350Q1322 371 1393 535Q1364 538 1309 547L1290 551Q1276 526 1249 477Q1163 323 1110 257T965 127Q723 -43 465 -43Q313 -43 216 20T119 184Q119 234 148 269T219 305Q285 305 285 238Q285 207
265 185T215 162Q166 162 166 209Q169 233 160 233Q141 233 141 180Q141 96 228 37T440 -23Q635 -23 791 93T1133 496Q1149 519 1180 567H1161Q1049 567 1006 481Q1001 467 995 467Q987 467 987 475Q987 515 1043 550T1163 586H1192Q1454 982 1741 1110Q1664 1127
1581 1149Q1313 1219 1165 1219Q1135 1219 1108 1217Q1151 1134 1151 1030Q1151 812 981 619T616 426Q534 426 483 477T432 612Q432 801 628 994T1067 1239Q991 1352 834 1352Q577 1352 369 1102Q352 1085 350 1085Q344 1085 342 1092Q342 1110 426 1188Q620 1368
827 1368Q1011 1368 1094 1243Q1200 1270 1341 1270Q1430 1270 1505 1256T1866 1174Q2089 1260 2284 1260Q2399 1260 2469 1235T2540 1167ZM2521 1165Q2521 1196 2456 1218T2298 1241Q2080 1241 1898 1165L2032 1135Q2200 1096 2341 1096Q2413 1096 2467 1117T2521
1165ZM1616 625Q1616 668 1567 668Q1502 668 1456 565L1448 547H1473Q1535 547 1575 569T1616 625ZM1114 1077Q1114 1144 1081 1212Q851 1183 650 993T449 614Q449 544 493 495T604 446Q778 446 946 654T1114 1077Z" />
<glyph unicode="G" glyph-name="Z" horiz-adv-x="1503" d="M1866 926Q1866 901 1789 810T1632 651Q1561 537 1528 463T1446 227Q1385 31 1296 -84T1044 -289Q812 -418 569 -418Q363 -418 236 -306T109 -12Q109 143 205 282T467 508T776 594Q788 594 797 592Q797
617 811 680Q793 678 768 678Q607 678 512 749T416 938Q416 1142 647 1300T1178 1458Q1416 1458 1567 1339Q1672 1378 1722 1378Q1819 1378 1819 1298Q1819 1224 1706 1114Q1714 1059 1714 1022Q1714 914 1651 791Q1632 754 1624 754Q1619 754 1618 760Q1619 765
1622 770Q1696 892 1696 1026Q1696 1067 1692 1102Q1525 955 1320 846T928 694Q896 642 879 586Q1143 541 1143 299V279Q1342 333 1632 674Q1697 776 1765 854T1858 932Q1864 932 1866 926ZM1800 1296Q1800 1362 1724 1362Q1666 1362 1585 1323Q1671 1249 1702
1133Q1800 1228 1800 1296ZM1688 1120Q1662 1239 1569 1317Q1390 1228 1213 1059T938 713Q1116 755 1320 865T1688 1120ZM1548 1333Q1415 1438 1182 1438Q901 1438 668 1283T434 940Q434 825 526 761T782 696H817Q934 1079 1548 1333ZM1126 274Q1133 393 1067 470T877
569Q862 518 862 467Q862 378 919 324T1071 270Q1100 270 1126 274ZM1597 610Q1328 311 1139 260Q1119 123 1011 11T791 -102Q732 -102 693 -66T653 23Q653 78 690 122T774 166Q844 166 844 102Q844 73 821 50T770 27Q717 27 717 74Q717 81 721 96Q723 104 723
111Q723 117 717 117Q702 117 687 85T672 23Q672 -24 706 -55T791 -86Q893 -86 1000 25T1122 256Q1100 252 1071 252Q943 252 869 338T795 573Q543 557 355 364T166 -72Q166 -217 273 -307T555 -397Q791 -397 984 -230T1432 362Q1510 494 1597 610Z" />
<glyph unicode="H" glyph-name="bracketleft" horiz-adv-x="1767" d="M2796 1075Q2796 915 2603 807Q2519 760 2488 760Q2480 760 2480 768Q2480 773 2509 784Q2621 828 2692 909T2763 1077Q2763 1157 2708 1207T2564 1257Q2278 1257 2052 928Q2013 871 1815 489Q1600
78 1309 -16Q1396 -27 1446 -27Q1628 -27 1755 92Q1865 194 1954 330Q1965 344 1970 344Q1974 343 1974 340Q1974 330 1880 209Q1769 66 1677 13T1450 -41Q1367 -41 1270 -27Q1196 -47 1135 -47Q1083 -47 1083 -25Q1083 0 1165 0Q1211 0 1280 -12Q1412 46 1481
131Q1555 223 1702 516L1718 549H1329Q1235 374 1166 290T981 127Q726 -47 489 -47Q351 -47 265 11T178 164Q178 213 207 249T279 285Q344 285 344 219Q344 187 324 164T274 141Q227 141 227 188Q230 213 221 213Q203 213 203 160Q203 78 280 26T477 -27Q688 -27
846 98T1206 549H899L907 569H1219Q1231 589 1260 633Q1470 973 1655 1108Q1694 1137 1759 1170T1839 1204Q1845 1202 1845 1196Q1845 1190 1825 1182Q1702 1132 1605 1010T1339 569H1729Q1916 903 2135 1088T2564 1274Q2667 1274 2731 1219T2796 1075ZM1499 1051Q1499
1030 1440 967Q1352 872 1272 872Q1215 872 1177 912T1139 1012Q1139 1067 1180 1149Q1231 1251 1231 1290Q1231 1341 1183 1372T1057 1403Q834 1403 638 1224T442 840Q442 735 506 669T672 602Q869 602 1004 784Q1006 790 1010 791Q1018 791 1018 782Q1018 761
954 705Q822 586 668 586Q560 586 492 656T424 838Q424 1054 624 1236T1063 1419Q1272 1419 1272 1235Q1272 1172 1229 1084T1186 967Q1186 891 1268 891Q1318 891 1382 938T1481 1049Q1486 1059 1491 1059Q1499 1059 1499 1051Z" />
<glyph unicode="I" glyph-name="backslash" horiz-adv-x="1307" d="M2083 1323Q2083 1306 2001 1270T1812 1204Q1563 1026 1319 569L1303 539Q1315 537 1331 537Q1453 537 1556 612T1681 793Q1685 809 1692 809Q1698 809 1698 801Q1698 740 1632 662Q1514 520
1327 520Q1309 520 1292 522L1264 467Q1191 327 1135 259Q1083 195 993 131Q742 -47 479 -47Q332 -47 237 15T141 174Q141 226 170 262T242 299Q307 299 307 231Q307 198 286 175T233 152Q186 152 186 197V217Q186 226 180 227Q162 227 162 176Q162 90 246 32T455
-27Q756 -27 997 274Q1068 363 1188 549Q1018 623 1018 788Q1018 988 1243 1085Q1357 1135 1602 1176L1712 1194L1806 1214Q1860 1254 1946 1293T2066 1333Q2083 1333 2083 1323ZM1782 1196Q1759 1191 1714 1180Q1677 1170 1606 1153Q1362 1095 1218 983T1073 739Q1073
613 1196 561Q1461 984 1782 1196Z" />
<glyph unicode="J" glyph-name="bracketright" horiz-adv-x="1153" d="M1923 1386Q1923 1371 1843 1334Q1760 1297 1661 1270Q1489 1127 1371 958T1108 479H1133Q1302 479 1417 604Q1474 666 1497 768Q1501 784 1509 784Q1518 784 1518 774Q1518 662 1396 563T1135
463Q1114 463 1100 465Q1094 452 1040 342Q915 87 830 -23T608 -219Q391 -356 164 -356Q33 -356 -51 -297T-135 -147Q-135 -97 -107 -62T-37 -27Q29 -27 29 -94Q29 -174 -43 -174Q-95 -174 -98 -109Q-98 -105 -100 -102Q-117 -102 -117 -150Q-117 -229 -38 -282T162
-336Q418 -336 604 -127Q677 -45 744 70Q853 263 963 457L979 485Q878 516 818 594T758 774Q758 954 907 1075Q995 1146 1084 1174T1407 1231Q1509 1243 1651 1278Q1837 1397 1909 1397Q1923 1397 1923 1386ZM1632 1262Q1564 1245 1448 1219Q1260 1177 1162 1136T983
1026Q811 879 811 717Q811 559 987 500Q1287 1043 1632 1262Z" />
<glyph unicode="K" glyph-name="asciicircum" horiz-adv-x="1804" d="M2816 1108Q2816 931 2587 821Q2522 791 2503 791Q2494 791 2494 797Q2494 805 2503 807Q2624 841 2704 926T2785 1106Q2785 1186 2729 1236T2580 1286Q2462 1286 2352 1219T2085 981Q1812
685 1567 662Q1659 609 1659 477Q1659 416 1610 227Q1587 141 1587 102Q1587 30 1631 -15T1747 -61Q1809 -61 1858 -23Q1870 -12 1874 -12Q1880 -12 1880 -18Q1880 -37 1831 -58T1741 -80Q1643 -80 1572 3T1501 201Q1501 275 1559 440Q1587 523 1587 569Q1587 625
1548 662Q1511 657 1487 657Q1413 657 1413 676Q1413 690 1454 690Q1495 690 1544 672Q1646 690 1730 748Q1811 804 1968 963Q2151 1147 2295 1227T2585 1307Q2685 1307 2750 1251T2816 1108ZM1501 1051Q1501 1029 1442 967Q1352 872 1272 872Q1215 872 1177 912T1139
1012Q1139 1064 1182 1149Q1233 1250 1233 1290Q1233 1341 1184 1372T1057 1403Q835 1403 639 1224T442 840Q442 735 506 669T672 602Q763 602 856 653T1006 786Q1010 791 1012 791Q1020 791 1020 782Q1020 762 956 705Q824 586 670 586Q561 586 493 656T424 838Q424
1054 625 1236T1065 1419Q1274 1419 1274 1235Q1274 1171 1208 1040Q1186 995 1186 967Q1186 891 1268 891Q1328 891 1394 946Q1448 991 1485 1053Q1489 1059 1493 1059Q1501 1059 1501 1051ZM1847 1196Q1847 1190 1827 1182Q1698 1128 1602 1003T1317 522Q1229
356 1146 265T924 90Q694 -49 492 -49Q352 -49 265 9T178 160Q178 212 208 247T283 283Q348 283 348 217Q348 185 327 162T276 139Q227 139 227 193Q227 213 219 213Q203 213 203 158Q203 75 281 23T485 -29Q703 -29 885 131Q977 212 1036 291T1260 633Q1471 971
1657 1108Q1693 1135 1759 1169T1839 1204Q1847 1204 1847 1196Z" />
<glyph unicode="L" glyph-name="underscore" horiz-adv-x="1554" d="M2124 1264Q2124 1193 1950 991T1610 668Q1485 394 1352 268T993 84Q1391 -22 1469 -39T1620 -57Q1724 -57 1808 18Q1817 23 1819 23Q1824 21 1825 18Q1825 2 1772 -35Q1674 -102 1487 -102Q1350
-102 1223 -76T836 33Q669 0 492 0Q178 0 178 96Q178 186 418 186Q604 186 973 90Q1083 133 1168 217T1384 498Q1086 238 827 238Q651 238 547 342T442 623Q442 894 698 1137T1241 1380Q1373 1380 1451 1312T1530 1128Q1530 923 1338 704T967 485Q891 485 839 533T786
651Q786 705 819 744T899 784Q961 784 961 723Q961 690 937 665T883 639Q834 639 836 684Q837 713 829 713Q807 713 807 651Q807 588 854 546T973 504Q1138 504 1324 719T1511 1126Q1511 1229 1441 1295T1260 1362Q995 1362 753 1097T510 545Q510 410 596 333T834
256Q964 256 1092 320T1409 543Q1566 806 1637 908Q1705 1006 1800 1106Q1985 1300 2083 1300Q2124 1300 2124 1264ZM2107 1264Q2107 1286 2083 1286Q2009 1286 1880 1135Q1765 1000 1624 698Q1795 837 1951 1019T2107 1264ZM803 43Q452 154 326 154Q195 154 195
96Q195 18 502 18Q668 18 803 43Z" />
<glyph unicode="M" glyph-name="grave" horiz-adv-x="2003" d="M2599 1270Q2599 1265 2572 1251Q2455 1189 2366 1072T2163 713Q1997 361 1867 207T1544 -14Q1633 -27 1681 -27Q1835 -27 1927 38T2189 332Q2200 346 2206 346Q2210 345 2210 340Q2210 330 2116
211Q2001 65 1911 12T1688 -41Q1606 -41 1511 -23Q1444 -45 1374 -45Q1321 -45 1321 -25Q1321 0 1395 0Q1436 0 1503 -10H1516Q1622 28 1695 110T1872 389Q2081 786 2203 951Q2321 1109 2486 1221Q2569 1276 2593 1276Q2599 1276 2599 1270ZM3080 999Q3080 960
3072 924T3054 887Q3047 887 3047 893Q3048 897 3049 901Q3064 936 3064 995Q3064 1128 2958 1220T2699 1313Q2452 1313 2193 1071Q2091 976 2017 886Q1946 801 1739 526Q1433 121 1237 20Q1149 -25 1124 -25Q1118 -25 1118 -18Q1119 -17 1139 -2Q1237 71 1295
194Q1349 307 1489 729Q1608 1089 1761 1245Q1767 1251 1767 1255Q1754 1259 1708 1212Q1559 1064 1358 680Q1234 444 1141 323T918 109Q706 -43 492 -43Q353 -43 266 15T178 166Q178 218 208 253T283 289Q348 289 348 225Q348 192 327 169T276 145Q227 145 227
199Q227 219 219 219Q203 219 203 164Q203 82 284 30T494 -23Q755 -23 1006 248Q1107 357 1177 460T1456 911Q1544 1058 1654 1178T1812 1298Q1819 1298 1819 1292Q1818 1288 1815 1284Q1722 1182 1647 899Q1535 484 1436 295Q1338 111 1184 16Q1180 15 1180 12Q1181
11 1184 10Q1207 10 1296 74Q1404 150 1495 256T1825 690Q1994 922 2093 1029T2314 1219Q2503 1346 2695 1346Q2863 1346 2971 1248T3080 999ZM1495 1055Q1495 1033 1438 969Q1352 872 1272 872Q1217 872 1179 912T1141 1012Q1141 1069 1182 1149Q1233 1249 1233
1290Q1233 1341 1185 1372T1059 1403Q836 1403 640 1223T444 840Q444 735 508 669T674 602Q764 602 856 653T1006 786Q1010 791 1012 791Q1020 791 1020 782Q1020 762 956 705Q824 586 670 586Q562 586 494 656T426 838Q426 1055 626 1237T1065 1419Q1163 1419
1218 1370T1274 1235Q1274 1171 1210 1040Q1188 994 1188 967Q1188 891 1270 891Q1319 891 1379 938T1477 1053Q1482 1063 1487 1063Q1495 1063 1495 1055Z" />
<glyph unicode="N" glyph-name="a" horiz-adv-x="1784" d="M3097 985Q3097 901 3078 901Q3070 901 3070 907Q3070 918 3074 942T3078 979Q3078 1117 2980 1205T2730 1294Q2429 1294 2124 903Q2028 781 1751 315Q1671 180 1587 75T1475 -31Q1460 -31 1460 -16Q1460
3 1505 25Q1593 66 1593 229Q1593 260 1589 332Q1579 510 1579 639Q1579 854 1620 992T1759 1237Q1761 1240 1763 1245Q1732 1249 1626 1118Q1570 1049 1526 975T1294 563Q1134 274 921 117T477 -41Q347 -41 263 17T178 166Q178 218 208 253T283 289Q348 289 348
225Q348 192 327 169T276 145Q227 145 227 199Q227 219 219 219Q203 219 203 164Q203 82 281 30T481 -23Q713 -23 911 152T1366 758Q1575 1109 1700 1219Q1786 1294 1810 1294Q1814 1293 1815 1290Q1815 1288 1802 1272Q1739 1187 1723 1092T1700 684Q1692 303
1606 139Q1604 139 1604 135L1606 133Q1624 133 1909 635Q2117 1002 2310 1165T2728 1329Q2888 1329 2992 1232T3097 985ZM1495 1055Q1495 1033 1438 969Q1352 872 1272 872Q1217 872 1179 912T1141 1012Q1141 1069 1182 1149Q1233 1249 1233 1290Q1233 1341 1185
1372T1059 1403Q836 1403 640 1223T444 840Q444 735 508 669T674 602Q764 602 856 653T1006 786Q1010 791 1012 791Q1020 791 1020 782Q1020 762 956 705Q824 586 670 586Q562 586 494 656T426 838Q426 1055 626 1237T1065 1419Q1163 1419 1218 1370T1274 1235Q1274
1171 1210 1040Q1188 994 1188 967Q1188 891 1270 891Q1319 891 1379 938T1477 1053Q1482 1063 1487 1063Q1495 1063 1495 1055Z" />
<glyph unicode="O" glyph-name="b" horiz-adv-x="1624" d="M1858 799Q1858 646 1772 488T1534 201Q1388 77 1221 5T913 -68Q729 -68 615 57T500 383Q500 567 614 758T922 1087Q1060 1187 1232 1249T1544 1311Q1682 1311 1764 1244T1847 1065Q1847 1019 1831 956Q1858
877 1858 799ZM1831 1063Q1831 1164 1760 1226T1573 1288Q1343 1288 1108 1135Q883 988 739 758Q588 520 588 287Q588 139 675 46T901 -47Q1181 -47 1464 241T1778 844Q1744 784 1657 703T1538 621Q1530 621 1530 629Q1530 634 1546 643Q1708 733 1780 881Q1780
1006 1707 1079T1509 1153Q1277 1153 1033 906T788 422Q788 328 832 270T948 211Q982 211 1017 231T1053 270Q1052 276 1049 276Q1049 276 1040 272Q1028 260 1001 260Q954 260 954 315Q954 349 977 372T1032 395Q1096 395 1096 324Q1096 271 1051 232T944 193Q858
193 801 263T743 440Q743 684 997 926T1507 1169Q1616 1169 1702 1118T1819 983Q1831 1023 1831 1063Z" />
<glyph unicode="P" glyph-name="c" horiz-adv-x="1575" d="M2488 1040Q2488 988 2474 926T2447 864Q2437 864 2437 874Q2437 877 2439 883Q2466 953 2466 1034Q2466 1160 2391 1236T2193 1313Q2027 1313 1851 1204Q2001 1084 2001 932Q2001 804 1898 709T1657
614Q1603 614 1541 635T1479 676Q1481 682 1487 682Q1492 682 1503 676Q1565 641 1628 641Q1742 641 1823 739T1905 973Q1905 1090 1821 1182Q1604 1020 1409 612Q1291 365 1193 256T918 59Q709 -43 545 -43Q411 -43 322 18T233 172Q233 223 263 260T336 297Q397
297 397 229Q397 195 377 171T326 147Q274 147 276 201Q277 223 272 223Q256 223 256 170Q256 87 337 32T543 -23Q762 -23 940 139Q1018 210 1073 284Q1133 364 1335 672Q1436 824 1573 977T1806 1196Q1650 1329 1348 1329Q926 1329 614 1024Q358 774 358 553Q358
441 430 375T625 309Q826 309 1040 502T1255 877Q1255 1022 1106 1022Q957 1022 787 856T616 543Q616 507 640 481T696 455Q713 455 713 446Q713 438 694 438Q646 438 613 481T580 588Q580 744 751 892T1102 1040Q1274 1040 1274 881Q1274 687 1055 489T623 291Q484
291 401 374T317 598Q317 881 636 1114T1343 1348Q1637 1348 1837 1217Q2020 1331 2191 1331Q2325 1331 2406 1251T2488 1040Z" />
<glyph unicode="Q" glyph-name="d" horiz-adv-x="1438" d="M1710 922Q1710 757 1617 589T1360 291Q1171 141 889 57Q1216 -41 1309 -64Q1396 -86 1458 -86Q1550 -86 1624 -18Q1627 -16 1632 -14Q1638 -17 1638 -23Q1638 -38 1589 -70Q1502 -125 1341 -125Q1190
-125 1094 -106Q964 -79 754 8L729 18Q597 -12 442 -12Q156 -12 156 80Q156 158 377 158Q568 158 864 66Q1185 168 1400 437T1616 1001Q1616 1155 1536 1241T1313 1327Q1019 1327 740 1052T461 485Q461 362 532 292T727 221Q983 221 1184 467Q1352 673 1352 866Q1352
946 1311 998T1204 1051Q1172 1051 1135 1032T1098 995Q1099 991 1104 991Q1105 991 1120 999Q1130 1006 1147 1006Q1196 1006 1196 952Q1196 920 1174 896T1120 872Q1057 872 1057 940Q1057 994 1099 1031T1202 1069Q1288 1069 1343 996T1399 809Q1399 579 1192
391T731 203Q571 203 478 297T385 553Q385 889 731 1139Q1021 1348 1315 1348Q1491 1348 1600 1230T1710 922ZM700 29Q398 127 291 127Q174 127 174 80Q174 6 444 6Q601 6 700 29Z" />
<glyph unicode="R" glyph-name="e" horiz-adv-x="1894" d="M2488 1040Q2488 988 2474 926T2447 864Q2437 864 2437 874Q2437 877 2439 883Q2466 953 2466 1034Q2466 1160 2391 1236T2193 1313Q2024 1313 1851 1204Q1999 1086 1999 948Q1999 831 1906 749T1659
647Q1763 587 1763 473Q1763 397 1710 242Q1675 140 1675 82Q1675 22 1718 -19T1823 -61Q1887 -61 1944 -18Q1957 -10 1962 -10Q1970 -10 1970 -18Q1970 -35 1914 -57T1817 -80Q1721 -80 1656 -4T1591 186Q1591 268 1663 475Q1681 528 1681 565Q1681 612 1642 645Q1578
639 1569 639Q1470 639 1470 664Q1470 680 1520 680Q1579 680 1638 657Q1757 676 1833 767T1909 983Q1909 1081 1833 1171L1823 1184Q1604 1020 1409 612Q1291 365 1193 256T918 59Q709 -43 545 -43Q411 -43 322 18T233 172Q233 223 263 260T336 297Q397 297 397
229Q397 195 377 171T326 147Q274 147 276 201Q277 223 272 223Q256 223 256 170Q256 87 337 32T543 -23Q762 -23 940 139Q1018 210 1073 284Q1133 364 1335 672Q1436 824 1573 977T1806 1196Q1650 1329 1348 1329Q926 1329 614 1024Q358 774 358 553Q358 441 430
375T625 309Q826 309 1040 502T1255 877Q1255 1022 1106 1022Q957 1022 787 856T616 543Q616 507 640 481T696 455Q713 455 713 446Q713 438 694 438Q646 438 613 481T580 588Q580 744 751 892T1102 1040Q1274 1040 1274 881Q1274 687 1055 489T623 291Q484 291
401 374T317 598Q317 881 636 1114T1343 1348Q1637 1348 1837 1217Q2020 1331 2191 1331Q2325 1331 2406 1251T2488 1040Z" />
<glyph unicode="S" glyph-name="f" horiz-adv-x="1448" d="M2036 1307Q2036 1259 1940 1169T1704 995Q1686 938 1651 788Q1595 553 1548 455T1393 254Q1081 -41 694 -41Q583 -41 498 -4Q451 -96 451 -164Q451 -250 508 -322Q514 -328 514 -336Q514 -344 504 -344Q481
-344 455 -282T428 -166Q428 -88 479 6Q270 114 270 377Q270 546 370 713T651 1014Q882 1184 1108 1184Q1231 1184 1303 1115T1376 928Q1376 865 1358 797Q1505 895 1618 963Q1690 1120 1799 1233T1989 1346Q2036 1346 2036 1307ZM2017 1305Q2017 1329 1989 1329Q1922
1329 1840 1237T1712 1020Q1844 1101 1930 1182T2017 1305ZM1323 752L1257 707Q880 447 713 274Q755 252 803 252Q943 252 1096 399T1323 752ZM1606 936Q1489 862 1350 768Q1284 556 1119 396T801 236Q755 236 700 260Q587 143 508 14Q590 -23 694 -23Q882 -23
1058 83T1360 379Q1419 467 1453 542T1563 827Q1581 879 1606 936ZM1358 932Q1358 1037 1292 1101T1116 1165Q847 1165 596 885T344 305Q344 108 489 25Q557 137 684 270Q618 327 618 406Q618 466 656 508T748 551Q815 551 815 489Q815 457 790 434T731 410Q682
410 682 457Q682 472 692 489Q696 502 696 504Q696 510 690 510Q673 510 655 474T637 403Q637 337 698 285Q899 497 1333 780Q1358 868 1358 932Z" />
<glyph unicode="T" glyph-name="g" horiz-adv-x="1202" d="M2531 1227Q2531 1173 2423 1136T2159 1098Q2002 1098 1769 1141Q1646 1077 1544 952T1325 596T1154 290T1004 141Q753 -45 483 -45Q339 -45 248 16T156 174Q156 223 185 258T254 293Q319 293 319 225Q319
193 299 170T250 147Q203 147 203 193Q203 217 195 217Q178 217 178 168Q178 87 261 31T467 -25Q735 -25 948 217Q1048 330 1206 590Q1464 1012 1745 1145Q1691 1154 1583 1178Q1329 1233 1194 1233Q1180 1233 1110 1229Q1157 1141 1157 1028Q1157 808 990 615T633
422Q554 422 505 474T455 610Q455 724 541 862T765 1104T1067 1249Q988 1356 842 1356Q719 1356 594 1285T373 1090Q359 1071 354 1071Q348 1071 346 1077Q346 1094 428 1176Q625 1372 840 1372Q1007 1372 1094 1255Q1215 1290 1372 1290Q1453 1290 1520 1280Q1591
1269 1868 1212Q2099 1313 2312 1313Q2531 1313 2531 1227ZM2515 1225Q2515 1254 2459 1274T2316 1294Q2102 1294 1901 1204Q1926 1200 2034 1180Q2194 1149 2318 1149Q2399 1149 2457 1171T2515 1225ZM1118 1077Q1118 1157 1081 1225Q857 1188 664 994T471 612Q471
540 515 491T625 442Q794 442 956 650T1118 1077Z" />
<glyph unicode="U" glyph-name="h" horiz-adv-x="1845" d="M2363 1237Q1669 285 1669 8Q1669 -60 1713 -103T1827 -147Q1946 -147 2060 -20Q2070 -10 2075 -10Q2081 -10 2081 -18Q2081 -29 2046 -59Q1928 -164 1827 -164Q1732 -164 1669 -90T1606 96Q1606 288
1803 601Q1792 586 1772 559L1724 494Q1543 241 1377 98T1100 -45Q1028 -45 984 7T940 145Q940 236 988 325T1206 637Q1383 868 1431 958T1479 1151Q1479 1246 1409 1302T1217 1358Q911 1358 629 1080T346 500Q346 387 409 319T578 250Q777 250 961 477Q1153 715
1153 911Q1153 1077 1012 1077Q977 1077 946 1061T915 1026Q915 1018 924 1018Q930 1019 942 1024Q947 1026 956 1026Q1008 1026 1008 977Q1008 945 984 921T928 897Q866 897 866 963Q866 1017 910 1056T1016 1096Q1087 1096 1129 1046T1171 911Q1171 715 983 475Q792
231 578 231Q452 231 376 317T299 547Q299 875 643 1145Q777 1250 933 1313T1214 1376Q1366 1376 1450 1295T1534 1067Q1534 943 1473 832T1169 399Q1063 259 1030 199T997 84Q997 35 1027 3T1104 -29Q1254 -29 1519 273T2208 1231Q2261 1227 2267 1227Q2305 1227
2363 1237Z" />
<glyph unicode="V" glyph-name="i" horiz-adv-x="1534" d="M3084 1423Q3084 1399 3056 1399H3039Q2984 1405 2949 1405Q2691 1405 2341 1180Q2173 1071 2056 959Q1943 849 1632 496Q1265 78 1079 -57Q981 -129 971 -129Q965 -129 965 -123Q965 -122 987 -92Q1164
137 1290 451T1417 975Q1417 1313 1143 1313Q1035 1313 894 1239T637 1047Q511 918 436 760T360 463Q360 339 427 267T608 195Q830 195 1040 479Q1190 682 1190 842Q1190 914 1155 956T1059 999Q1025 999 992 984T958 952Q958 946 965 946H973Q1001 950 1004 950Q1049
950 1049 901Q1049 870 1025 848T969 825Q907 825 907 889Q907 941 952 979T1059 1018Q1126 1018 1167 971T1208 846Q1208 650 1014 416Q816 178 606 178Q474 178 391 270T307 508Q307 786 586 1057T1149 1329Q1318 1329 1423 1212T1528 903Q1528 699 1413 474T1042
-49Q1032 -61 1032 -63L1034 -66Q1051 -66 1159 27Q1242 97 1331 194Q1411 281 1753 670Q1955 900 2109 1032T2454 1274Q2765 1452 3002 1452Q3084 1452 3084 1423Z" />
<glyph unicode="W" glyph-name="j" horiz-adv-x="1892" d="M3465 1516Q3465 1491 3434 1491H3420Q3389 1495 3342 1495Q3112 1495 2787 1288Q2602 1170 2477 1046Q2348 919 2042 547Q1672 98 1464 -55Q1395 -106 1384 -106Q1379 -106 1378 -102Q1378 -101 1407
-72Q1534 57 1669 430Q1790 763 1860 916T2011 1171Q2030 1195 2030 1198Q2023 1200 2015 1190L2005 1180L1980 1149Q1915 1068 1675 752Q1296 239 1010 14Q856 -106 831 -106Q826 -104 825 -100Q825 -97 838 -86Q1034 93 1213 451T1393 1024Q1393 1170 1322 1255T1128
1341Q869 1341 614 1052T358 469Q358 347 424 272T598 197Q824 197 1026 506Q1157 707 1157 864Q1157 938 1121 983T1024 1028Q988 1028 954 1011T920 975Q920 969 926 969Q929 969 936 971Q961 975 969 975Q1014 975 1014 924Q1014 893 990 871T934 848Q872 848
872 915Q872 968 918 1007T1024 1047Q1093 1047 1134 997T1176 864Q1176 676 1004 440Q813 180 596 180Q470 180 389 276T307 520Q307 658 380 808T582 1081Q869 1360 1133 1360Q1288 1360 1393 1238T1499 938Q1499 747 1341 475T958 6Q936 -14 936 -16Q937 -20
940 -20Q971 -20 1139 154Q1377 401 1782 934Q1898 1087 2010 1208T2148 1329Q2154 1329 2154 1323Q2154 1320 2148 1313Q2085 1229 2046 1142Q2002 1043 1913 770Q1815 472 1735 316Q1651 155 1524 25Q1522 21 1520 18Q1521 15 1524 14Q1541 14 1667 145Q1755
236 2159 725Q2368 978 2533 1124T2904 1386Q3185 1544 3394 1544Q3465 1544 3465 1516Z" />
<glyph unicode="X" glyph-name="k" horiz-adv-x="2056" d="M2658 1180Q2658 1146 2639 1107T2603 1067Q2593 1067 2593 1077Q2593 1081 2609 1098Q2640 1128 2640 1178Q2640 1237 2593 1276T2474 1315Q2249 1315 1890 1016Q1743 893 1577 727L1563 713L1554 694L1544
666Q1405 276 1405 184Q1405 -23 1595 -23Q1771 -23 1973 185T2175 555Q2175 629 2130 673T2009 717Q1926 717 1824 656T1640 500Q1625 481 1618 481Q1613 483 1612 487Q1612 499 1661 547Q1854 735 2015 735Q2095 735 2150 677T2206 535Q2206 344 1997 152T1581
-41Q1464 -41 1387 40T1309 244Q1309 383 1393 567Q1372 548 1311 485Q1048 202 850 75T475 -53Q354 -53 276 4T197 152Q197 202 224 236T291 270Q358 270 358 205Q358 174 338 151T291 127Q248 127 244 174Q242 197 233 197Q219 197 219 154Q219 74 286 22T459
-31Q760 -31 1311 512Q1337 539 1407 606Q1459 731 1510 857Q1569 1016 1569 1120Q1569 1221 1510 1279T1350 1337Q1106 1337 834 1118Q520 866 520 592Q520 491 590 429T774 367Q1015 367 1239 618Q1399 798 1399 950Q1399 1012 1359 1051T1253 1090Q1110 1090
945 923T780 610Q780 569 805 540T866 512Q879 512 879 508Q879 500 864 500Q809 500 775 541T741 651Q741 808 908 957T1251 1106Q1325 1106 1371 1063T1417 950Q1417 753 1192 543Q984 348 778 348Q643 348 562 426T481 635Q481 919 807 1149Q1094 1352 1346
1352Q1482 1352 1566 1272T1651 1059Q1651 937 1577 752Q1587 761 1800 973Q1975 1147 2149 1247T2449 1348Q2540 1348 2599 1301T2658 1180Z" />
<glyph unicode="Y" glyph-name="l" horiz-adv-x="1907" d="M2474 1112Q2473 1109 2466 1104Q2293 982 2147 774Q2006 571 1831 199Q1681 -121 1424 -312T895 -504Q760 -504 673 -442T586 -281Q586 -222 622 -181T709 -139Q774 -139 774 -201Q774 -234 752 -258T698
-283Q645 -283 645 -233Q645 -221 649 -211Q651 -206 651 -199Q651 -193 647 -193Q633 -193 620 -221T606 -281Q606 -370 686 -428T889 -487Q1055 -487 1205 -397T1451 -184Q1544 -65 1735 281Q1801 400 1892 545Q1671 279 1563 178Q1361 -10 1233 -10Q1156 -10
1108 47T1059 197Q1059 291 1113 389T1339 707Q1561 988 1561 1165Q1561 1399 1278 1399Q963 1399 647 1112Q517 994 430 832T342 545Q342 425 411 354T598 283Q806 283 995 479Q1223 715 1223 915Q1223 986 1183 1029T1077 1073Q931 1073 770 893T608 549Q608
444 709 444H713Q723 444 723 438Q723 430 698 430Q643 430 608 476T573 596Q573 767 737 928T1075 1090Q1151 1090 1196 1043T1241 915Q1241 736 1057 518Q842 264 600 264Q465 264 383 355T301 596Q301 894 614 1145Q770 1269 949 1342T1278 1415Q1436 1415 1527
1327T1618 1083Q1618 960 1562 844T1341 514Q1199 329 1161 264T1122 135Q1122 10 1241 10Q1352 10 1507 146T1915 604Q2176 935 2441 1112L2454 1120Q2462 1124 2464 1124Q2474 1124 2474 1112Z" />
<glyph unicode="Z" glyph-name="m" horiz-adv-x="1337" d="M2038 1249Q2038 1196 1890 1065Q1771 959 1642 922Q1632 905 1565 778Q1446 548 1294 426T903 246Q1071 237 1171 158T1272 -45Q1272 -283 993 -481Q731 -668 502 -668Q373 -668 288 -608T203 -457Q203
-406 231 -371T303 -336Q367 -336 367 -401Q367 -434 346 -458T295 -483Q273 -483 255 -468T240 -434L242 -420V-416Q241 -412 238 -412Q221 -412 221 -461Q221 -541 299 -594T494 -647Q717 -647 938 -438Q1163 -225 1163 -27Q1163 212 881 233Q771 195 694 195Q664
195 664 209Q664 224 717 236T842 248H874Q1021 312 1137 414T1423 729Q1522 853 1581 920Q1447 923 1387 987T1321 1190Q1315 1362 1141 1362Q891 1362 634 1099T377 580Q377 466 443 397T621 328Q816 328 1012 536T1208 952Q1208 1025 1170 1068T1069 1112Q939
1112 788 932T637 596Q637 500 729 487Q741 487 741 479Q741 471 729 471Q672 471 631 521T590 641Q590 802 748 966T1061 1130Q1138 1130 1182 1083T1227 950Q1227 734 1025 521T616 307Q487 307 409 394T330 627Q330 884 598 1124Q883 1380 1155 1380Q1328 1380
1401 1266Q1425 1227 1433 1198Q1438 1175 1454 1065Q1473 931 1591 934Q1893 1282 2003 1282Q2038 1282 2038 1249ZM2015 1243Q2015 1262 1995 1262Q1949 1262 1852 1172T1655 946Q1809 994 1954 1151Q2015 1218 2015 1243Z" />
<glyph unicode="[" glyph-name="n" horiz-adv-x="899" d="M1534 1432Q1534 1403 1399 1403Q1324 1403 1284 1409Q1175 1249 842 637Q546 94 459 -127Q530 -123 580 -125Q640 -127 688 -139Q731 -150 727 -158Q724 -164 713 -164Q711 -164 666 -158T573 -152Q371
-152 299 -162Q405 18 745 647Q976 1073 1159 1446Q1227 1431 1376 1427Q1427 1426 1493 1433Q1534 1438 1534 1432Z" />
<glyph unicode="\" glyph-name="o" horiz-adv-x="1083" d="M948 -207H922L852 1487H879L948 -207Z" />
<glyph unicode="]" glyph-name="p" horiz-adv-x="899" d="M1419 1440Q1314 1260 973 631Q742 205 559 -168Q492 -153 342 -150Q292 -148 226 -155Q184 -160 184 -154Q184 -125 319 -125Q394 -125 434 -131Q544 29 877 641Q1172 1184 1260 1405Q1189 1401 1139
1403Q1079 1405 1030 1417Q988 1428 991 1436Q994 1442 1005 1442Q1008 1442 1053 1436T1145 1430Q1348 1430 1419 1440Z" />
<glyph unicode="^" glyph-name="q" horiz-adv-x="1024" d="M1251 596Q1232 596 1202 641Q1138 736 1077 883Q952 800 716 696T418 592Q406 592 406 602Q411 609 434 618Q652 711 869 849Q1090 990 1171 1092Q1170 1061 1170 1030Q1170 813 1247 621Q1257 596 1251 596Z" />
<glyph unicode="_" glyph-name="r" horiz-adv-x="1024" d="M1118 -213H94V-170H1118V-213Z" />
<glyph unicode="`" glyph-name="s" horiz-adv-x="1024" d="M895 639Q894 635 889 635Q864 635 824 709T762 866L848 926Q831 877 831 829Q831 725 887 651Q894 644 895 639Z" />
<glyph unicode="a" glyph-name="t" horiz-adv-x="705" d="M889 313Q889 292 743 119Q625 -23 557 -23Q511 -23 482 11T453 98Q453 152 485 215Q385 75 332 26T229 -23Q176 -23 140 22T104 137Q104 329 375 477Q494 543 567 543Q629 543 629 483Q629 466 621 438L672
535Q702 528 725 528Q752 528 795 535L618 242Q526 88 526 39Q526 -8 565 -8Q605 -8 693 83T872 309Q878 319 883 319Q889 319 889 313ZM614 479Q614 528 569 528Q477 528 328 348T178 57Q178 -8 236 -8Q305 -8 475 221Q614 409 614 479Z" />
<glyph unicode="b" glyph-name="u" horiz-adv-x="539" d="M723 1010L274 301Q379 445 431 494T530 543Q586 543 621 498T657 383Q657 232 465 86Q322 -23 211 -23Q159 -23 127 16T94 119Q94 194 190 348L604 1012Q631 1004 662 1004Q686 1004 723 1010ZM584 461Q584
528 528 528Q455 528 279 287Q147 107 147 45Q147 -8 199 -8Q289 -8 436 171T584 461Z" />
<glyph unicode="c" glyph-name="v" horiz-adv-x="496" d="M682 313Q682 300 541 145Q387 -23 279 -23Q209 -23 159 30T109 158Q109 242 177 332T360 487Q457 543 518 543Q592 543 592 455Q592 386 546 317T453 248Q408 248 408 293Q408 346 500 391Q571 426 571
483Q571 528 522 528Q439 528 318 363T197 86Q197 -8 285 -8Q423 -8 659 303Q672 319 678 319Q682 318 682 313Z" />
<glyph unicode="d" glyph-name="w" horiz-adv-x="705" d="M1094 1012Q719 416 621 250Q522 81 522 37Q522 -8 563 -8Q654 -8 872 309Q878 319 883 319Q889 319 889 313Q888 310 879 297L836 238Q647 -23 557 -23Q511 -23 482 11T453 100Q453 154 489 225Q314 -23
229 -23Q176 -23 140 22T104 137Q104 302 309 436Q472 543 565 543Q627 543 627 483Q627 455 610 420L967 1018Q1000 1008 1032 1008Q1040 1008 1094 1012ZM612 475Q612 528 563 528Q473 528 326 349T178 59Q178 -8 233 -8Q313 -8 508 270Q612 420 612 475Z" />
<glyph unicode="e" glyph-name="x" horiz-adv-x="504" d="M690 313Q690 310 672 287L629 233Q422 -23 274 -23Q204 -23 157 27T109 154Q109 334 360 471Q492 543 575 543Q611 543 636 522T662 469Q662 397 568 347T254 252Q186 149 186 80Q186 -6 279 -6Q437 -6
666 303Q678 319 686 319Q690 318 690 313ZM606 498Q606 530 571 530Q518 530 432 457T262 266Q406 303 506 370T606 498Z" />
<glyph unicode="f" glyph-name="y" horiz-adv-x="272" d="M864 1030Q864 941 738 807T408 543H580L571 528H397L315 369Q164 74 57 -75T-190 -342Q-383 -502 -549 -502Q-623 -502 -623 -481Q-623 -471 -612 -471Q-604 -471 -600 -473Q-564 -483 -532 -483Q-397
-483 -260 -362Q-176 -288 -113 -188Q-61 -108 133 248L287 528H180L188 543H297Q425 760 580 918T819 1077Q864 1077 864 1030ZM852 1032Q852 1065 819 1065Q743 1065 612 891Q547 803 416 563Q580 677 716 823T852 1032Z" />
<glyph unicode="g" glyph-name="z" horiz-adv-x="686" d="M870 313Q870 297 762 176Q641 42 449 -63L399 -154Q263 -405 94 -541Q-68 -672 -186 -672Q-229 -672 -257 -646T-285 -582Q-285 -377 178 -166Q278 -120 307 -104L477 209Q366 62 321 20T227 -23Q175
-23 139 23T102 135Q102 308 328 449Q479 543 565 543Q625 543 625 477Q625 459 616 434L672 535Q699 528 719 528Q745 528 795 535Q788 526 707 385L459 -43Q590 31 668 100T846 299Q861 319 866 319Q870 318 870 313ZM614 477Q614 528 565 528Q475 528 327 349T178
59Q178 -8 236 -8Q295 -8 436 170Q614 395 614 477ZM297 -121Q278 -132 184 -178Q-272 -404 -272 -584Q-272 -615 -249 -636T-190 -657Q-80 -657 24 -545T285 -141Q285 -141 297 -121Z" />
<glyph unicode="h" glyph-name="braceleft" horiz-adv-x="641" d="M825 315Q825 307 815 297L772 238Q584 -23 492 -23Q444 -23 414 11T383 98Q383 168 459 281Q578 456 578 489Q578 528 537 528Q477 528 373 410Q273 297 98 -18Q68 -12 47 -12Q25 -12 -12 -18L135
248Q165 305 227 416Q260 470 430 760L582 1018Q612 1012 633 1012Q673 1012 709 1022Q605 855 399 522Q393 512 244 264Q432 543 541 543Q584 543 614 506T645 416Q645 347 557 217Q459 72 459 35Q459 -8 502 -8Q580 -8 760 244L791 287L809 309Q814 319 821 319Q825
319 825 315Z" />
<glyph unicode="i" glyph-name="bar" horiz-adv-x="344" d="M514 727Q514 692 485 662T420 631Q375 631 375 676Q375 709 406 739T471 770Q514 770 514 727ZM528 313Q527 310 518 297L475 238Q287 -23 188 -23Q141 -23 110 10T78 94Q78 152 147 270L303 535Q334
528 352 528Q379 528 428 535L201 162Q152 81 152 37Q152 -8 199 -8Q288 -8 512 309Q517 319 522 319Q528 319 528 313Z" />
<glyph unicode="j" glyph-name="braceright" horiz-adv-x="309" d="M524 725Q524 691 495 662T430 633Q389 633 389 676Q389 708 418 738T481 768Q524 768 524 725ZM496 315Q496 300 385 176Q271 48 74 -63L23 -152Q-132 -417 -283 -541Q-443 -672 -557 -672Q-659
-672 -659 -578Q-659 -463 -504 -342Q-419 -276 -360 -242Q-269 -190 -80 -109L-66 -102L109 209Q182 336 297 535Q325 528 344 528Q372 528 418 535Q338 405 176 125L84 -43Q213 29 294 101T471 299Q483 319 492 319Q495 319 496 315ZM-74 -121Q-359 -266 -436
-319Q-645 -463 -645 -582Q-645 -614 -621 -635T-561 -657Q-456 -657 -353 -540Q-266 -442 -86 -141Q-86 -141 -74 -121Z" />
<glyph unicode="k" glyph-name="asciitilde" horiz-adv-x="616" d="M717 1022Q709 1008 692 981Q666 939 614 856Q589 813 537 727L365 449Q279 310 219 197Q152 71 111 2L98 -18Q71 -12 45 -12Q23 -12 -20 -18Q3 21 31 70L147 272Q173 317 225 408L592 1022Q633
1014 653 1014Q673 1014 717 1022ZM803 313Q802 310 793 297L750 238Q561 -23 465 -23Q422 -23 389 6T356 72Q356 104 412 215L413 219Q432 256 432 274Q432 296 399 315Q361 299 336 299Q301 299 301 319Q301 336 334 336Q366 336 393 326Q443 348 553 475Q612
543 674 543Q750 543 750 471Q750 423 712 376T635 328Q592 328 592 367Q592 403 657 444Q684 461 684 492Q684 516 653 516Q610 516 545 440Q462 345 410 322Q514 274 514 211Q514 176 465 76Q444 34 444 18Q444 -8 477 -8Q571 -8 784 309Q791 319 797 319Q803
319 803 313Z" />
<glyph unicode="l" glyph-name="Adieresis" horiz-adv-x="328" d="M711 1022Q291 323 222 200T152 37Q152 -8 190 -8Q274 -8 498 309Q503 319 510 319Q514 318 514 313Q514 307 504 297L461 238Q272 -23 182 -23Q139 -23 112 9T84 92Q84 147 109 198T283 496Q464
797 588 1018Q618 1010 641 1010Q679 1010 711 1022Z" />
<glyph unicode="m" glyph-name="Aring" horiz-adv-x="1114" d="M1298 313Q1297 310 1288 297L1245 238Q1057 -23 967 -23Q920 -23 890 12T860 102Q860 158 898 223Q905 235 971 330Q1055 450 1055 487Q1055 528 1014 528Q882 528 561 -14Q541 -10 506 -10Q465
-10 436 -14L578 211Q717 433 717 483Q717 528 680 528Q625 528 500 370T252 -14Q229 -10 193 -10Q154 -10 125 -14L268 211Q416 443 416 498Q416 528 393 528Q344 528 190 313Q180 299 174 299Q170 300 170 305Q170 314 262 430Q352 543 401 543Q433 543 456 513T479
440Q479 382 420 279Q600 543 688 543Q730 543 757 509T784 424Q784 367 731 279Q921 543 1016 543Q1059 543 1088 506T1118 416Q1118 354 1069 271Q1068 270 983 143Q934 71 934 33Q934 -8 975 -8Q1053 -8 1233 244L1264 287L1282 309Q1287 319 1292 319Q1298
319 1298 313Z" />
<glyph unicode="n" glyph-name="Ccedilla" horiz-adv-x="801" d="M987 313Q987 292 842 119Q723 -23 655 -23Q610 -23 580 12T549 98Q549 143 567 181T664 334Q745 454 745 487Q745 528 702 528Q556 528 252 -14Q203 -10 193 -10Q158 -10 127 -14L283 233Q416
445 416 498Q416 528 391 528Q340 528 190 313Q181 300 176 299Q171 299 170 305Q171 310 174 313L193 338Q346 543 399 543Q433 543 457 512T481 438Q481 374 406 260Q524 423 587 483T705 543Q749 543 779 507T809 418Q809 351 717 213Q623 72 623 33Q623 -8
664 -8Q753 -8 971 309Q976 319 981 319Q987 319 987 313Z" />
<glyph unicode="o" glyph-name="Eacute" horiz-adv-x="594" d="M778 315Q778 299 719 240Q631 152 557 152Q526 152 502 164Q370 -23 254 -23Q194 -23 152 26T109 145Q109 299 311 442Q453 543 545 543Q631 543 631 451Q631 336 510 174Q530 162 555 162Q600 162
660 204T758 305Q769 319 774 319Q778 319 778 315ZM616 449Q616 530 543 530Q452 530 321 356T190 63Q190 -6 256 -6Q364 -6 492 172Q463 204 463 238Q463 287 502 339T578 391Q594 391 600 371Q616 406 616 449Z" />
<glyph unicode="p" glyph-name="Ntilde" horiz-adv-x="543" d="M662 383Q662 220 459 86Q294 -23 201 -23Q137 -23 137 37Q137 55 147 86L-236 -553Q-271 -545 -293 -545Q-326 -545 -358 -557L463 793Q490 784 516 784Q543 784 582 793L285 313Q392 455 440 499T537
543Q590 543 626 497T662 383ZM588 463Q588 528 530 528Q457 528 285 293Q152 111 152 43Q152 -8 199 -8Q291 -8 439 171T588 463Z" />
<glyph unicode="q" glyph-name="Odieresis" horiz-adv-x="592" d="M791 537Q696 377 469 6Q348 -196 188 -463Q171 -489 137 -545Q104 -537 74 -537Q40 -537 10 -545L479 207Q475 201 440 156Q307 -23 225 -23Q173 -23 138 23T102 137Q102 298 307 434Q470 543
565 543Q627 543 627 483Q627 463 612 426L672 535Q690 530 719 530Q741 530 791 537ZM612 479Q612 528 567 528Q477 528 328 348T178 57Q178 -8 236 -8Q306 -8 473 217Q612 405 612 479Z" />
<glyph unicode="r" glyph-name="Udieresis" horiz-adv-x="569" d="M756 313Q756 305 696 240Q620 156 553 156Q477 156 477 244Q477 272 489 315Q426 260 387 206T250 -14Q197 -10 188 -10Q184 -10 127 -14L291 252Q414 452 414 500Q414 528 391 528Q335 528 188
313Q179 299 172 299Q168 300 168 305Q169 310 172 313L190 338Q344 543 399 543Q479 543 479 440Q479 363 397 236Q449 296 496 334Q534 423 590 483T692 543Q723 543 723 516Q723 468 584 379Q562 365 518 338L506 328Q492 282 492 252Q492 168 555 168Q633 168
725 297Q745 319 750 319Q756 319 756 313Z" />
<glyph unicode="s" glyph-name="aacute" horiz-adv-x="399" d="M524 702Q524 662 399 543Q393 512 393 489Q393 431 446 305Q473 242 473 199Q473 109 386 43T178 -23Q110 -23 70 15T29 119Q29 194 82 265T193 336Q203 336 211 332L291 430Q327 473 387 549Q404
619 439 669T508 719Q524 719 524 702ZM385 307Q385 337 383 366T381 451Q381 496 385 526Q329 455 223 326Q242 310 242 287Q242 228 145 207Q106 198 78 165T49 94Q49 54 78 27T150 0Q234 0 309 97T385 307Z" />
<glyph unicode="t" glyph-name="agrave" horiz-adv-x="338" d="M555 543L547 528H416L193 147Q152 78 152 37Q152 -8 199 -8Q290 -8 506 309Q513 319 518 319Q524 319 524 313Q523 310 514 297L471 238Q283 -23 188 -23Q141 -23 110 11T78 96Q78 156 131 246L299
528H197L207 543H307L424 737Q454 729 481 729Q509 729 539 737L424 543H555Z" />
<glyph unicode="u" glyph-name="acircumflex" horiz-adv-x="641" d="M827 313Q827 290 682 119Q562 -23 492 -23Q448 -23 418 12T387 98Q387 137 426 207L406 180Q314 62 271 22Q224 -23 182 -23Q138 -23 108 11T78 96Q78 154 123 229L305 535Q339 528 358 528Q377
528 426 535L188 143Q152 83 152 37Q152 -8 190 -8Q291 -8 514 369L612 535Q643 528 664 528Q689 528 735 535L575 274Q461 88 461 35Q461 -8 502 -8Q582 -8 762 244L793 287L811 309Q816 319 821 319Q827 319 827 313Z" />
<glyph unicode="v" glyph-name="adieresis" horiz-adv-x="559" d="M745 315Q745 303 682 238Q595 147 530 147Q486 147 457 195Q368 72 312 25T199 -23Q148 -23 113 12T78 98Q78 157 145 270L303 535Q352 530 369 530Q406 530 428 535L219 197Q150 83 150 39Q150
-8 203 -8Q252 -8 303 37T451 207Q442 237 442 260Q442 351 498 447T606 543Q631 543 631 514Q631 439 465 205Q486 160 530 160Q606 160 715 295Q735 319 741 319Q745 319 745 315Z" />
<glyph unicode="w" glyph-name="atilde" horiz-adv-x="868" d="M1055 315Q1055 304 991 238Q905 147 840 147Q796 147 766 195Q677 72 621 25T508 -23Q457 -23 423 11T389 96Q389 138 416 197Q266 -23 180 -23Q137 -23 108 12T78 96Q78 153 137 254L303 535Q343
528 362 528Q379 528 428 535L201 164Q147 77 147 37Q147 -8 188 -8Q233 -8 322 92T500 342L612 535Q666 530 680 530Q715 530 737 535L528 197Q459 84 459 41Q459 -8 510 -8Q612 -8 758 207Q752 244 752 262Q752 351 807 447T915 543Q938 543 938 512Q938 428
774 205Q799 160 840 160Q915 160 1024 295Q1044 319 1051 319Q1054 319 1055 315Z" />
<glyph unicode="x" glyph-name="aring" horiz-adv-x="713" d="M897 313Q897 313 893 305L881 289Q750 114 678 47Q603 -23 543 -23Q483 -23 438 23T393 131Q393 158 408 207Q272 -23 170 -23Q138 -23 116 1T94 61Q94 113 131 157T211 201Q264 201 264 150Q264
92 182 70Q137 58 137 25Q137 -6 174 -6Q248 -6 344 129Q496 342 496 467Q496 528 440 528Q345 528 197 322Q180 299 174 299Q170 301 170 305Q170 323 269 433T446 543Q506 543 545 502T584 399Q584 369 569 332Q707 543 807 543Q883 543 883 461Q883 412 850
370T778 328Q729 328 729 379Q729 427 801 449Q846 462 846 496Q846 528 805 528Q720 528 599 357T477 68Q477 -8 549 -8Q653 -8 870 297Q886 319 891 319Q897 319 897 313Z" />
<glyph unicode="y" glyph-name="ccedilla" horiz-adv-x="631" d="M815 313Q815 298 705 176Q583 42 387 -66L338 -154Q193 -414 35 -541Q-128 -672 -248 -672Q-289 -672 -316 -646T-344 -582Q-344 -381 119 -166Q157 -147 233 -113L248 -104L424 209Q320 66 273
22T178 -23Q137 -23 107 12T76 94Q76 151 147 272L301 532Q324 528 354 528Q380 528 426 535L229 215Q145 79 145 37Q145 -8 186 -8Q294 -8 518 375L610 532Q633 528 666 528Q693 528 733 535Q609 338 397 -43Q519 20 603 93T791 301Q805 319 809 319Q815 319 815
313ZM238 -121Q222 -130 125 -178Q-330 -404 -330 -584Q-330 -659 -246 -659Q-140 -659 -35 -544T225 -141Q225 -141 238 -121Z" />
<glyph unicode="z" glyph-name="eacute" horiz-adv-x="571" d="M786 532Q786 499 694 446Q592 360 348 176Q316 153 264 113L293 115Q341 118 378 82T426 -10Q483 22 584 124T735 301Q747 319 754 319Q757 319 758 315Q758 295 649 174Q537 49 428 -27V-53Q428
-164 349 -290T154 -494Q-101 -662 -252 -662Q-369 -662 -369 -567Q-369 -457 -209 -336Q-126 -273 221 -121Q289 -91 348 -57Q365 -11 365 27Q365 102 285 102Q262 102 250 100L236 88L199 53Q105 -35 78 -35Q53 -35 53 -12Q53 52 238 109Q517 320 664 438L643
424Q587 385 541 385Q508 385 457 428Q410 467 379 467Q317 467 192 312Q181 299 176 299Q172 300 172 305Q172 322 264 420Q376 539 453 539Q484 539 586 473Q621 451 649 451Q664 451 680 459L692 475L725 516Q748 545 770 545Q786 545 786 532ZM342 -74Q317
-87 57 -209Q-136 -298 -246 -394T-356 -571Q-356 -649 -254 -649Q-111 -649 75 -470T342 -74Z" />
<glyph unicode="{" glyph-name="egrave" horiz-adv-x="899" d="M1452 1438Q1452 1426 1415 1423Q1250 1411 1172 1321T1004 956Q909 668 565 623Q569 622 586 621Q725 610 725 532Q725 456 592 227Q465 9 465 -53Q465 -129 598 -127Q657 -126 657 -133Q657 -152
606 -152Q473 -152 444 -146Q344 -128 344 -49Q344 8 382 92T537 375Q618 514 618 553Q618 610 535 610Q520 610 520 618Q520 630 557 635Q685 654 746 725T897 1026Q961 1192 1029 1276Q1094 1356 1198 1403Q1298 1448 1413 1448Q1452 1448 1452 1438Z" />
<glyph unicode="|" glyph-name="ecircumflex" horiz-adv-x="1024" d="M858 -342H819V1366H858V-342Z" />
<glyph unicode="}" glyph-name="edieresis" horiz-adv-x="899" d="M1042 1309Q1042 1260 1012 1202T831 901Q745 763 745 717Q745 683 776 659T848 635Q870 636 870 625Q870 614 844 610Q743 597 700 556T596 377Q494 149 455 84Q350 -91 223 -131Q158 -152 -20
-152Q-53 -152 -53 -139Q-53 -126 10 -127Q146 -128 220 -59T393 225Q507 473 583 542T825 623Q645 652 645 762Q645 822 735 956Q794 1042 852 1129Q936 1262 936 1321Q936 1426 805 1423Q780 1423 780 1432Q780 1448 831 1448Q1042 1448 1042 1309Z" />
<glyph unicode="~" glyph-name="iacute" horiz-adv-x="1366" d="M1636 1430Q1527 1239 1382 1239Q1306 1239 1100 1350Q985 1411 913 1411Q799 1411 698 1235L664 1257Q776 1448 918 1448Q997 1448 1161 1358Q1311 1276 1380 1276Q1500 1276 1604 1450L1636 1430Z" />
</font>
</defs>
</svg>
